<svg width="1390" height="204" viewBox="0 0 1390 204" version="1.1" xmlns="http://www.w3.org/2000/svg" xmlns:xlink="http://www.w3.org/1999/xlink">
<title>Frame 4</title>
<desc>Created using Figma</desc>
<g id="Canvas" transform="translate(2246 -8446)">
<clipPath id="clip-0" clip-rule="evenodd">
<path d="M -2246 8446L -856 8446L -856 8650L -2246 8650L -2246 8446Z" fill="#FFFFFF"/>
</clipPath>
<g id="Frame 4" clip-path="url(#clip-0)">
<path d="M -2246 8446L -856 8446L -856 8650L -2246 8650L -2246 8446Z" fill="#FFFFFF"/>
<g id="Vector 34">
<use xlink:href="#path0_fill" transform="translate(-2092.2 8465.58)" fill="#0029FF"/>
<use xlink:href="#path0_fill" transform="translate(-2092.2 8465.58)" fill="url(#paint1_diamond)"/>
<use xlink:href="#path0_fill" transform="translate(-2092.2 8465.58)" fill="url(#paint2_linear)"/>
</g>
<g id="Vector 28">
<use xlink:href="#path1_stroke" transform="translate(-2245 8543.13)"/>
</g>
<g id="Vector 32">
<use xlink:href="#path2_fill" transform="translate(-2058.07 8467.68)" fill="#FFCC00"/>
</g>
<g id="Vector 32" style="mix-blend-mode:screen">
<use xlink:href="#path3_fill" transform="matrix(0.988606 0.150529 -0.151918 0.988393 -2041.88 8465)" fill="#37FF97"/>
</g>
<g id="Vector 32" style="mix-blend-mode:screen">
<use xlink:href="#path4_fill" transform="matrix(0.989187 -0.146662 0.146926 0.989148 -2058 8488.83)" fill="#FFF8DC"/>
</g>
<g id="Vector 32" style="mix-blend-mode:soft-light">
<use xlink:href="#path5_fill" transform="matrix(0.989187 -0.146662 0.146926 0.989148 -2057.95 8489.15)" fill="#07E144"/>
</g>
<g id="Vector 32" style="mix-blend-mode:multiply">
<use xlink:href="#path6_fill" transform="matrix(-0.849994 -0.526792 0.529137 -0.848536 -1975.25 8592)" fill="#37FF97"/>
</g>
<g id="Vector 32" style="mix-blend-mode:multiply">
<use xlink:href="#path7_fill" transform="matrix(-0.9672 -0.254017 0.254479 -0.967078 -1956.39 8579.68)" fill="#005CFF"/>
</g>
<g id="Vector 32" style="mix-blend-mode:lighten">
<use xlink:href="#path8_fill" transform="matrix(-0.914516 -0.404549 0.404305 -0.914624 -1981.25 8598.49)" fill="#FF0000"/>
</g>
<g id="Vector 33" style="mix-blend-mode:lighten">
<use xlink:href="#path9_fill" transform="translate(-2099 8456)" fill="url(#paint11_radial)"/>
</g>
<g id="Vector 33" style="mix-blend-mode:lighten">
<use xlink:href="#path9_fill" transform="translate(-2099 8456)" fill="url(#paint12_radial)"/>
</g>
<g id="Vector 33" style="mix-blend-mode:lighten">
<use xlink:href="#path9_fill" transform="translate(-2099 8456)" fill="url(#paint13_radial)"/>
</g>
<g id="Vector 33" style="mix-blend-mode:lighten">
<use xlink:href="#path9_fill" transform="translate(-2099 8456)" fill="url(#paint14_radial)"/>
</g>
<g id="Vector 33" style="mix-blend-mode:lighten">
<use xlink:href="#path9_fill" transform="translate(-2099 8456)" fill="url(#paint15_radial)"/>
</g>
<g id="Vector 33" style="mix-blend-mode:lighten">
<use xlink:href="#path9_fill" transform="translate(-2099 8456)" fill="url(#paint16_radial)"/>
</g>
<g id="Vector 28">
<use xlink:href="#path10_stroke" transform="matrix(-1 0 0 1 -1973.8 8513)"/>
</g>
<g id="Vector 30">
<use xlink:href="#path11_fill" transform="translate(-2114.5 8574)" fill="#E6CBB2"/>
<use xlink:href="#path12_stroke" transform="translate(-2114.5 8574)"/>
</g>
<g id="Vector 29">
<use xlink:href="#path13_fill" transform="translate(-2026 8565)" fill="#744E31"/>
</g>
<g id="Vector 31">
<use xlink:href="#path14_stroke" transform="translate(-1149 8534)"/>
</g>
<g id="Vector 31">
<use xlink:href="#path15_stroke" transform="matrix(0.961945 -0.273243 0.273243 0.961945 -1778 8562.78)"/>
</g>
<g id="time">
<use xlink:href="#path16_fill" transform="translate(-931.329 8562)"/>
</g>
<g id="Vector 35">
<use xlink:href="#path17_stroke" transform="translate(-1514 8547)"/>
</g>
</g>
</g>
<defs>
<radialGradient id="paint1_diamond" cx="0.5" cy="0.5" r="0.5" gradientUnits="userSpaceOnUse" gradientTransform="matrix(1.2187e-14 115.062 -199.029 7.04549e-15 199.029 -7.04549e-15)">
<stop offset="0" stop-color="#FFFFFF"/>
<stop offset="1" stop-color="#FFFFFF" stop-opacity="0"/>
</radialGradient>
<linearGradient id="paint2_linear" x1="0" y1="0" x2="1" y2="0" gradientUnits="userSpaceOnUse" gradientTransform="matrix(1.2187e-14 115.062 -199.029 7.04549e-15 199.029 -7.04549e-15)">
<stop offset="0" stop-color="#FFFFFF"/>
<stop offset="1" stop-color="#FFFFFF" stop-opacity="0"/>
</linearGradient>
<radialGradient id="paint11_radial" cx="0.5" cy="0.5" r="0.5" gradientUnits="userSpaceOnUse" gradientTransform="matrix(-226.701 43.2785 -58.9146 -156.105 248.308 133.913)">
<stop offset="0" stop-color="#FF0000"/>
<stop offset="0.0001" stop-color="#FFFFFF"/>
<stop offset="1" stop-color="#FF0000" stop-opacity="0"/>
</radialGradient>
<radialGradient id="paint12_radial" cx="0.5" cy="0.5" r="0.5" gradientUnits="userSpaceOnUse" gradientTransform="matrix(-226.701 43.2785 -58.9146 -156.105 248.308 133.913)">
<stop offset="0" stop-color="#FF0000"/>
<stop offset="0.0001" stop-color="#FFFFFF"/>
<stop offset="1" stop-color="#FF0000" stop-opacity="0"/>
</radialGradient>
<radialGradient id="paint13_radial" cx="0.5" cy="0.5" r="0.5" gradientUnits="userSpaceOnUse" gradientTransform="matrix(-226.701 43.2785 -58.9146 -156.105 248.308 133.913)">
<stop offset="0" stop-color="#2EEB89"/>
<stop offset="0.0001" stop-color="#FFFFFF"/>
<stop offset="1" stop-color="#EBFF01" stop-opacity="0"/>
</radialGradient>
<radialGradient id="paint14_radial" cx="0.5" cy="0.5" r="0.5" gradientUnits="userSpaceOnUse" gradientTransform="matrix(-226.701 43.2785 -58.9146 -156.105 248.308 133.913)">
<stop offset="0" stop-color="#FF0000"/>
<stop offset="0.0001" stop-color="#FFFFFF"/>
<stop offset="1" stop-color="#FF0000" stop-opacity="0"/>
</radialGradient>
<radialGradient id="paint15_radial" cx="0.5" cy="0.5" r="0.5" gradientUnits="userSpaceOnUse" gradientTransform="matrix(-226.701 43.2785 -58.9146 -156.105 248.308 133.913)">
<stop offset="0" stop-color="#FF0000"/>
<stop offset="0.0001" stop-color="#FFFFFF"/>
<stop offset="1" stop-color="#FF0000" stop-opacity="0"/>
</radialGradient>
<radialGradient id="paint16_radial" cx="0.5" cy="0.5" r="0.5" gradientUnits="userSpaceOnUse" gradientTransform="matrix(-226.701 43.2785 -58.9146 -156.105 248.308 133.913)">
<stop offset="0" stop-color="#FF0000"/>
<stop offset="0.0001" stop-color="#FFFFFF"/>
<stop offset="1" stop-color="#FF0000" stop-opacity="0"/>
</radialGradient>
<path id="path0_fill" d="M 30.6989 25.9179C 14.6989 40.4179 -20.3012 53.4179 15.6989 86.9179C 51.6989 120.418 112.699 123.917 174.199 97.9174C 235.699 71.9174 165.199 35.4174 152.199 10.4174C 139.199 -14.5826 46.6989 11.4179 30.6989 25.9179Z"/>
<path id="path1_stroke" d="M 0.00819689 18.8661C 152.542 18.366 182.926 20.19 205.597 22.8909C 228.516 25.6215 243.752 29.253 365.559 32.3655L 365.687 27.3672C 244.052 24.2591 228.972 20.6404 206.188 17.9261C 183.156 15.1821 152.45 13.3662 -0.00819689 13.8661L 0.00819689 18.8661ZM 365.559 32.3655C 487.39 35.4762 617.411 27.3406 734.276 18.7818C 851.145 10.2227 954.837 1.24376 1024.25 2.64451L 1024.35 -2.35447C 954.671 -3.7535 850.747 5.23855 733.911 13.7952C 617.072 22.3521 487.298 30.4771 365.687 27.3672L 365.559 32.3655ZM 1024.25 2.64451C 1093.74 4.04313 1177.44 8.67931 1247.51 12.9884C 1317.58 17.2971 1374.05 21.2811 1388.99 21.3662L 1389.01 16.3663C 1374.24 16.2847 1317.91 12.308 1247.82 7.99778C 1177.73 3.68782 1093.93 -0.953309 1024.35 -2.35447L 1024.25 2.64451Z"/>
<path id="path2_fill" d="M 22.5742 117.317C -7.92576 113.317 -3.42581 93.8177 12.0742 64.3174C 27.5743 34.8172 69.0742 -16.6825 92.5742 5.31745C 116.074 27.3175 121.074 37.8174 125.074 64.3174C 129.074 90.8174 53.0742 121.317 22.5742 117.317Z"/>
<path id="path3_fill" d="M 19.3194 100.148C -6.78298 96.7331 -2.93186 80.0872 10.3333 54.9044C 23.5985 29.7216 59.1147 -14.241 79.2264 4.53923C 99.338 23.3195 103.617 32.2828 107.04 54.9044C 110.464 77.5261 45.4217 103.562 19.3194 100.148Z"/>
<path id="path4_fill" d="M 19.3228 100.13C -6.78417 96.7161 -2.93237 80.0731 10.3351 54.8947C 23.6026 29.7164 59.1251 -14.2385 79.2402 4.53843C 99.3554 23.3154 103.635 32.2771 107.059 54.8947C 110.483 77.5124 45.4297 103.544 19.3228 100.13Z"/>
<path id="path5_fill" d="M 19.8553 99.8067C -6.97114 96.4037 -3.01319 79.8145 10.62 54.7174C 24.2531 29.6204 60.7546 -14.1925 81.4241 4.52377C 102.094 23.2401 106.491 32.1728 110.01 54.7174C 113.528 77.2621 46.6817 103.21 19.8553 99.8067Z"/>
<path id="path6_fill" d="M 15.0042 77.7265C -5.26792 75.0764 -2.27699 62.1572 8.02525 42.6123C 18.3275 23.0675 45.9107 -11.0527 61.5302 3.52298C 77.1497 18.0987 80.473 25.0553 83.1316 42.6123C 85.7902 60.1694 35.2762 80.3766 15.0042 77.7265Z"/>
<path id="path7_fill" d="M 15.4253 77.4367C -5.4158 74.7964 -2.34091 61.9254 8.25053 42.4534C 18.842 22.9815 47.1995 -11.0115 63.2575 3.50984C 79.3154 18.0312 82.732 24.9618 85.4652 42.4534C 88.1985 59.945 36.2665 80.0769 15.4253 77.4367Z"/>
<path id="path8_fill" d="M 15.2111 78.5616C -5.34058 75.883 -2.3084 62.825 8.13594 43.0702C 18.5803 23.3153 46.544 -11.1715 62.3789 3.56083C 78.2138 18.2931 81.5829 25.3244 84.2782 43.0702C 86.9735 60.8159 35.7628 81.2402 15.2111 78.5616Z"/>
<path id="path9_fill" d="M 88.0286 153.692C 63.623 142.534 -49.6886 171.051 25.2715 52.0258C 100.232 -66.999 197.854 52.0258 210.057 76.8227C 222.26 101.62 112.434 164.851 88.0286 153.692Z"/>
<path id="path10_stroke" d="M 34.6462 26.7576L 37.0594 26.1048L 37.0594 26.1048L 34.6462 26.7576ZM 1.69241 68.5L -0.275729 70.0416L 1.69241 68.5ZM 12.6522 42.5L 10.8852 40.7314L 10.8852 40.7314L 12.6522 42.5ZM -0.724838 9.44238C -2.38678 15.7403 -0.280916 21.6135 3.3256 26.3122C 6.8618 30.8753 12.2171 34.7417 17.2944 36.9927C 22.3355 39.213 27.9049 40.2907 32.0558 38.836C 34.2569 38.0646 36.0979 36.5537 37.0394 34.1868C 37.9456 31.9088 37.8876 29.1662 37.0594 26.1048L 32.2329 27.4104C 32.8998 29.8758 32.7576 31.4235 32.3935 32.3387C 32.0648 33.165 31.4496 33.7503 30.4021 34.1174C 28.0558 34.9397 23.9579 34.4641 19.3097 32.4169C 14.6976 30.4003 10.3415 27.2848 7.29192 23.2678C 4.31263 19.3863 2.95834 15.0811 4.10966 10.7182L -0.724838 9.44238ZM 37.0594 26.1048C 33.9367 14.5614 26.7883 4.4381 19.3139 -0.0371735C 15.5629 -2.28312 11.3276 -3.32193 7.43299 -1.74441C 3.52193 -0.160234 0.783884 3.72514 -0.724838 9.44238L 4.10966 10.7182C 5.41421 5.77463 7.45216 3.64242 9.3101 2.88986C 11.1845 2.13064 13.7112 2.43595 16.7454 4.25266C 22.8415 7.90269 29.3568 16.7789 32.2329 27.4104L 37.0594 26.1048ZM -0.275729 70.0416C 0.977086 71.6411 2.88995 72.8775 5.02647 73.8725C 7.14448 74.8543 9.83051 75.7472 12.7406 76.4912C 18.5157 77.9611 25.7886 79.0475 33.3986 79.8125C 48.6006 81.3372 65.6949 81.6667 76.7378 81.4997L 76.6621 76.5003C 65.705 76.6667 48.8985 76.3461 33.8982 74.8375C 26.4071 74.0859 19.5035 73.0597 13.9766 71.6463C 11.2357 70.9487 8.9894 70.2071 7.13743 69.34C 5.30397 68.4861 4.20923 67.6589 3.66055 66.9584L -0.275729 70.0416ZM 20.1679 32.5244C 17.4688 34.6185 14.1114 37.5106 10.8852 40.7314L 14.4192 44.2686C 17.512 41.1761 20.6331 38.4898 23.2319 36.4756L 20.1679 32.5244ZM 10.8852 40.7314C 6.6207 44.9955 2.33008 50.1362 -0.159768 55.0007C -2.63007 59.8624 -3.82698 65.5076 -0.275729 70.0416L 3.66055 66.9584C 1.97942 64.8121 2.07421 61.6418 4.29779 57.2657C 6.50184 52.8924 10.3073 48.3733 14.4192 44.2686L 10.8852 40.7314ZM 10.1896 42.9307C 11.037 47.7757 14.054 54.3493 20.4909 58.2832C 27.0421 62.2869 36.5602 63.2146 49.6537 57.8109L 47.7462 53.1891C 35.6397 58.1854 27.8919 56.9464 23.0982 54.0168C 18.1902 51.0173 15.7833 45.8909 15.1148 42.0693L 10.1896 42.9307ZM 14.9968 40.1914C 19.307 42.5568 26.3799 45.9478 33.3326 48.3169C 36.816 49.5001 40.4362 50.4707 43.6288 50.9199C 46.8188 51.3638 50.0253 51.3624 52.6284 50.3212L 50.7715 45.6788C 49.3746 46.2376 47.2061 46.3695 44.318 45.9676C 41.4324 45.571 38.2714 44.7166 34.9423 43.5831C 28.27 41.3188 21.5929 38.1099 17.4031 35.8086L 14.9968 40.1914Z"/>
<path id="path11_fill" d="M 0 0C 3 0 173 14 202 8.5C 185.609 19.9495 152.084 36.3945 119.5 45C 107.024 48.2949 98.1857 43.386 87 42.5L 78.9498 43.2892C 72.5417 44.3286 64.8034 45.8862 61.5 45C 28.5113 36.1507 9.55139 13.8929 0 0Z"/>
<path id="path12_stroke" d="M 0 0L 0 -0.5L -0.950515 -0.5L -0.412021 0.283264L 0 0ZM 202 8.5L 202.286 8.9099L 201.907 8.00876L 202 8.5ZM 61.5 45L 61.3705 45.4829L 61.3705 45.4829L 61.5 45ZM 119.5 45L 119.628 45.4834L 119.628 45.4834L 119.5 45ZM 0 0.5C 0.350277 0.5 3.30151 0.715824 8.3144 1.08944C 13.3065 1.4615 20.3068 1.98692 28.7136 2.60024C 45.5268 3.82685 67.9674 5.40518 91.2198 6.81159C 114.472 8.21797 138.543 9.45274 158.612 9.99201C 178.657 10.5306 194.779 10.3784 202.093 8.99124L 201.907 8.00876C 194.721 9.37164 178.718 9.53188 158.638 8.99237C 138.582 8.45351 114.528 7.21953 91.2802 5.81341C 68.0326 4.40732 45.5982 2.8294 28.7864 1.60289C 20.3807 0.989645 13.381 0.464283 8.38872 0.0922033C 3.41724 -0.278324 0.399723 -0.5 0 -0.5L 0 0.5ZM 87.0395 42.0016C 85.1598 41.8527 82.1503 42.2636 78.8698 42.7957L 79.0299 43.7828C 82.3441 43.2452 85.2251 42.861 86.9605 42.9984L 87.0395 42.0016ZM 78.8698 42.7957C 75.6606 43.3162 72.1318 43.9642 68.9963 44.3708C 65.8327 44.7813 63.1705 44.9304 61.6295 44.5171L 61.3705 45.4829C 63.1329 45.9557 65.9916 45.7691 69.125 45.3625C 72.2865 44.9521 75.8309 44.3016 79.0299 43.7828L 78.8698 42.7957ZM 61.6295 44.5171C 28.8052 35.7118 9.93214 13.5642 0.412021 -0.283264L -0.412021 0.283264C 9.17064 14.2217 28.2174 36.5895 61.3705 45.4829L 61.6295 44.5171ZM 86.9512 42.0024L 78.901 42.7916L 78.9986 43.7868L 87.0488 42.9976L 86.9512 42.0024ZM 78.901 42.7916L 61.4512 44.5024L 61.5488 45.4976L 78.9986 43.7868L 78.901 42.7916ZM 201.714 8.0901C 185.374 19.5037 151.904 35.9251 119.372 44.5166L 119.628 45.4834C 152.265 36.864 185.844 20.3953 202.286 8.9099L 201.714 8.0901ZM 119.372 44.5166C 113.216 46.1495 107.996 45.748 102.854 44.8257C 97.7126 43.9048 92.6826 42.4511 87.0395 42.0016L 86.9605 42.9984C 92.5032 43.4349 97.4851 44.8786 102.678 45.81C 107.87 46.74 113.308 47.1454 119.628 45.4834L 119.372 44.5166Z"/>
<path id="path13_fill" d="M 58 76.5C 55.507 65.5309 27.6569 27.2158 0.231436 2.2107L 2 0C 14.8333 14.5 42.1 45.6 48.5 54C 56.5 64.5 58 50.5 64.5 61.5C 71 72.5 82.5 63 82 67.5C 81.5 72 60.5 87.5 58 76.5Z"/>
<path id="path14_stroke" d="M 32.1528 13.5L 32.4465 15.9827L 32.4424 11.0168L 32.1528 13.5ZM 3.87009 1.88532C 6.23521 3.94285 10.5252 7.1653 15.4622 9.97408C 20.383 12.7634 26.3621 15.315 31.8632 15.9832L 32.4424 11.0168C 27.6546 10.485 22.6099 8.28664 17.9307 5.62592C 13.2679 2.9847 9.38185 0.0571529 7.15372 -1.88532L 3.87009 1.88532ZM 31.859 11.0173C 24.8234 11.8498 8.17826 14.5455 -1.03265 18.7232L 1.03265 23.2768C 9.45983 19.4545 25.3961 16.8169 32.4465 15.9827L 31.859 11.0173Z"/>
<path id="path15_stroke" d="M 17.5 13.5L 18.0311 15.9429L 18.0238 11.0555L 17.5 13.5ZM 0.880004 1.325C 2.17611 3.39606 4.55543 6.67663 7.28287 9.53012C 9.93863 12.3002 13.3869 15.1754 16.9762 15.9445L 18.0238 11.0555C 16.0131 10.6246 13.4614 8.74976 10.8921 6.06988C 8.39457 3.47337 6.32389 0.603935 5.12 -1.325L 0.880004 1.325ZM 16.9689 11.0571C 13.0826 11.9019 3.6961 14.6656 -1.60046 19.0794L 1.60046 22.9206C 5.9039 19.3344 14.2507 16.7648 18.0311 15.9429L 16.9689 11.0571Z"/>
<path id="path16_fill" d="M 4.69743 24.5651C 4.69743 24.6926 4.66844 24.8028 4.61045 24.8956C 4.55245 24.9768 4.47706 25.0406 4.38427 25.087C 4.30308 25.1334 4.21029 25.1624 4.10591 25.174C 4.01312 25.1972 3.92033 25.2088 3.82754 25.2088C 3.69995 25.2088 3.54917 25.1914 3.37519 25.1566C 3.21281 25.1334 3.05043 25.0928 2.88805 25.0348C 2.72567 24.9768 2.57489 24.9072 2.43571 24.826C 2.30812 24.7332 2.20953 24.623 2.13994 24.4955C 2.07035 24.3795 2.00656 24.1649 1.94857 23.8517C 1.90217 23.527 1.86158 23.1558 1.82678 22.7383C 1.79198 22.3091 1.76299 21.8568 1.73979 21.3812C 1.71659 20.8941 1.6934 20.4301 1.6702 19.9894C 1.6586 19.5487 1.647 19.1543 1.6354 18.8063C 1.6354 18.4468 1.6354 18.18 1.6354 18.006C 1.6354 17.1941 1.647 16.4112 1.6702 15.6573C 1.70499 14.8918 1.73979 14.1089 1.77459 13.3086C 1.71659 13.3086 1.6586 13.3144 1.60061 13.326C 1.54261 13.3376 1.48462 13.3434 1.42663 13.3434C 1.27585 13.3666 1.11927 13.384 0.956885 13.3956C 0.806103 13.4072 0.649522 13.413 0.487141 13.413C 0.289965 13.413 0.115986 13.3782 -0.0347958 13.3086C -0.185578 13.239 -0.260969 13.0824 -0.260969 12.8389C -0.260969 12.5489 -0.197176 12.3169 -0.0695916 12.1429C 0.057993 11.969 0.220373 11.8356 0.41755 11.7428C 0.614726 11.6384 0.8293 11.5688 1.06127 11.534C 1.29324 11.4876 1.51942 11.4528 1.73979 11.4296C 1.77459 11.4296 1.79778 11.4296 1.80938 11.4296C 1.82098 11.418 1.84418 11.4122 1.87897 11.4122C 1.89057 11.2731 1.90217 11.1049 1.91377 10.9077C 1.92537 10.6989 1.93697 10.4727 1.94857 10.2292C 1.96016 9.84642 1.97756 9.44047 2.00076 9.01132C 2.02396 8.57058 2.04715 8.15303 2.07035 7.75867C 2.09355 7.35272 2.12254 6.99897 2.15734 6.6974C 2.19214 6.38424 2.22693 6.16387 2.26173 6.03628C 2.31972 5.8855 2.38351 5.76371 2.4531 5.67093C 2.5343 5.57814 2.67928 5.53174 2.88805 5.53174C 3.352 5.53174 3.71155 5.68252 3.96672 5.98409C 4.22189 6.28565 4.34948 6.65681 4.34948 7.09755C 4.34948 7.60789 4.33208 8.11823 4.29728 8.62857C 4.27409 9.13891 4.25089 9.65505 4.22769 10.177L 4.1755 11.0643C 4.46546 11.0295 4.75543 10.9773 5.04539 10.9077C 5.32376 10.8497 5.60213 10.7975 5.88049 10.7511C 6.17046 10.7047 6.44882 10.6815 6.71559 10.6815C 6.94756 10.6815 7.12734 10.7453 7.25493 10.8729C 7.38251 10.9889 7.4463 11.1629 7.4463 11.3948C 7.4463 11.65 7.39991 11.8994 7.30712 12.1429C 7.21433 12.3865 7.05195 12.5721 6.81998 12.6997L 6.83738 12.6997C 6.79098 12.7229 6.6518 12.7577 6.41983 12.8041C 6.18786 12.8389 5.92109 12.8737 5.61952 12.9085C 5.32956 12.9433 5.03959 12.978 4.74963 13.0128C 4.47126 13.0476 4.26249 13.0708 4.1233 13.0824L 4.10591 13.0824C 4.08271 13.732 4.06531 14.3757 4.05371 15.0136C 4.04211 15.6399 4.03631 16.2778 4.03631 16.9274C 4.03631 17.8205 4.05951 18.7715 4.10591 19.7806C 4.1639 20.7781 4.25669 21.7292 4.38427 22.6339L 4.52346 23.4168C 4.56985 23.614 4.61045 23.8111 4.64524 24.0083C 4.68004 24.1939 4.69743 24.3795 4.69743 24.5651ZM 9.81242 10.3684C 9.81242 10.5655 9.76602 10.7105 9.67324 10.8033C 9.59205 10.8845 9.43546 10.9251 9.20349 10.9251C 9.09911 10.9251 8.93672 10.9135 8.71635 10.8903C 8.49598 10.8555 8.2698 10.8091 8.03783 10.7511C 7.81746 10.6931 7.62028 10.6119 7.4463 10.5075C 7.28392 10.4032 7.20273 10.2756 7.20273 10.1248C 7.20273 10.0784 7.22013 9.95081 7.25493 9.74204C 7.28972 9.52166 7.33032 9.28969 7.37671 9.04612C 7.43471 8.80255 7.4811 8.58218 7.5159 8.385C 7.56229 8.18782 7.59709 8.07764 7.62028 8.05444L 7.62028 8.07184C 7.67828 7.97905 7.74787 7.92105 7.82906 7.89786C 7.91025 7.87466 7.99144 7.86306 8.07263 7.86306C 8.17702 7.86306 8.3104 7.88046 8.47278 7.91526C 8.64676 7.93845 8.81494 7.97905 8.97732 8.03704C 9.1513 8.08344 9.30788 8.14723 9.44706 8.22842C 9.58625 8.30961 9.67324 8.3966 9.70803 8.48939C 9.74283 8.58218 9.76023 8.70976 9.76023 8.87214C 9.77182 9.02292 9.77182 9.16211 9.76023 9.28969C 9.76023 9.33608 9.75443 9.39408 9.74283 9.46367C 9.74283 9.52166 9.74283 9.56806 9.74283 9.60285C 9.74283 9.66085 9.74283 9.71884 9.74283 9.77683C 9.75443 9.83482 9.76602 9.89282 9.77762 9.95081C 9.78922 10.0088 9.79502 10.0726 9.79502 10.1422C 9.80662 10.2118 9.81242 10.2872 9.81242 10.3684ZM 10.4561 24.2345C 10.4561 24.5013 10.3923 24.6926 10.2648 24.8086C 10.1488 24.913 9.9574 24.9652 9.69063 24.9652C 9.55145 24.9652 9.39487 24.9478 9.22089 24.913C 9.05851 24.8782 8.89613 24.8318 8.73375 24.7738C 8.57137 24.7042 8.42059 24.623 8.2814 24.5303C 8.14222 24.4375 8.03783 24.3331 7.96824 24.2171C 7.92185 24.1475 7.88125 23.9329 7.84646 23.5734C 7.81166 23.2138 7.78266 22.7673 7.75947 22.2337C 7.74787 21.7002 7.73047 21.1029 7.70727 20.4417C 7.69567 19.7806 7.68408 19.1137 7.67248 18.441C 7.67248 17.7683 7.67248 17.1129 7.67248 16.475C 7.67248 15.8371 7.67248 15.2804 7.67248 14.8048L 7.67248 13.4652C 7.67248 13.3492 7.67248 13.2332 7.67248 13.1172C 7.68408 13.0012 7.70727 12.9027 7.74207 12.8215C 7.78846 12.7287 7.85226 12.6533 7.93345 12.5953C 8.02623 12.5373 8.15382 12.5083 8.3162 12.5083C 8.82654 12.5083 9.19769 12.6533 9.42967 12.9433C 9.67324 13.2216 9.82402 13.5986 9.88201 14.0741C 9.94 14.7816 9.9806 15.4891 10.0038 16.1967C 10.0386 16.8926 10.0676 17.6001 10.0908 18.3192C 10.114 18.9687 10.1314 19.6124 10.143 20.2504C 10.1662 20.8767 10.2068 21.503 10.2648 22.1293C 10.2764 22.2569 10.288 22.3787 10.2996 22.4947C 10.3112 22.6107 10.3286 22.7267 10.3518 22.8427C 10.375 23.0746 10.3981 23.3066 10.4213 23.5386C 10.4445 23.7589 10.4561 23.9909 10.4561 24.2345ZM 14.8926 24.913C 14.8926 25.1798 14.8114 25.3538 14.649 25.4349C 14.4983 25.5161 14.3127 25.5567 14.0923 25.5567C 13.8951 25.5567 13.698 25.5393 13.5008 25.5045C 13.3152 25.4813 13.1354 25.4291 12.9614 25.348C 12.7991 25.2668 12.6541 25.1566 12.5265 25.0174C 12.4105 24.8782 12.3293 24.6984 12.2829 24.4781C 12.1205 23.7821 12.0278 23.1036 12.0046 22.4425C 11.9814 21.7698 11.9698 21.0797 11.9698 20.3722L 11.9698 18.2322C 11.9698 17.2579 12.0104 16.2489 12.0915 15.205C 12.1727 14.1495 12.2597 13.1346 12.3525 12.1603C 12.3525 12.1255 12.3583 12.085 12.3699 12.0386C 12.3815 11.9922 12.3873 11.9574 12.3873 11.9342C 12.3989 11.8066 12.4163 11.6674 12.4395 11.5166C 12.4627 11.3658 12.4975 11.2325 12.5439 11.1165C 12.6019 10.9889 12.6773 10.8845 12.7701 10.8033C 12.8745 10.7221 13.0078 10.6815 13.1702 10.6815C 13.3558 10.6815 13.5298 10.7221 13.6922 10.8033C 13.8661 10.8729 14.0169 10.9715 14.1445 11.0991C 14.2721 11.2151 14.3707 11.36 14.4403 11.534C 14.5215 11.708 14.562 11.8878 14.562 12.0734C 14.562 12.3053 14.5504 12.5489 14.5273 12.8041C 14.5157 13.0476 14.4983 13.2854 14.4751 13.5174C 14.4519 13.6798 14.4345 13.8015 14.4229 13.8827C 14.4229 13.9639 14.4171 14.0973 14.4055 14.2829C 14.5447 14.0393 14.7012 13.7957 14.8752 13.5522C 15.0608 13.297 15.2638 13.0766 15.4841 12.8911C 15.7045 12.6939 15.9423 12.5373 16.1975 12.4213C 16.4642 12.2937 16.7484 12.2299 17.0499 12.2299C 17.3515 12.2299 17.6009 12.2821 17.7981 12.3865C 17.9952 12.4793 18.1518 12.6127 18.2678 12.7867C 18.3838 12.9491 18.465 13.1462 18.5114 13.3782C 18.5578 13.6102 18.581 13.8537 18.581 14.1089C 18.581 14.2713 18.5752 14.4279 18.5636 14.5787C 18.5636 14.7294 18.5578 14.8802 18.5462 15.031C 18.5346 15.1818 18.523 15.3326 18.5114 15.4833C 18.5114 15.6225 18.5114 15.7733 18.5114 15.9357C 18.5114 16.2373 18.5172 16.5272 18.5288 16.8056C 18.552 17.0724 18.5752 17.3565 18.5984 17.6581C 18.7143 17.2753 18.8535 16.8404 19.0159 16.3532C 19.1899 15.8661 19.3871 15.3674 19.6074 14.857C 19.8394 14.3467 20.0888 13.8479 20.3556 13.3608C 20.6339 12.8621 20.9297 12.4213 21.2428 12.0386C 21.5676 11.6558 21.9156 11.3484 22.2867 11.1165C 22.6579 10.8729 23.0464 10.7511 23.4524 10.7511C 24.0903 10.7511 24.5368 10.9367 24.792 11.3078C 25.0588 11.679 25.1922 12.1545 25.1922 12.7345C 25.1922 12.8969 25.1864 13.0708 25.1748 13.2564C 25.1632 13.4304 25.1458 13.5986 25.1226 13.761C 25.0646 14.3873 25.0182 15.031 24.9834 15.6921C 24.9602 16.3532 24.9486 16.997 24.9486 17.6233L 24.9486 17.9538C 24.9486 18.7658 24.9834 19.5313 25.053 20.2504C 25.1226 20.9695 25.2618 21.7292 25.4705 22.5295L 25.6097 22.9992C 25.6561 23.1616 25.7083 23.3414 25.7663 23.5386C 25.8359 23.7358 25.8939 23.9271 25.9403 24.1127C 25.9867 24.2983 26.0273 24.4723 26.0621 24.6346C 26.0969 24.797 26.1143 24.9246 26.1143 25.0174C 26.1143 25.261 26.0273 25.4233 25.8533 25.5045C 25.6793 25.5857 25.4995 25.6263 25.314 25.6263C 25.198 25.6263 25.0646 25.6205 24.9138 25.6089C 24.763 25.6089 24.6122 25.5915 24.4615 25.5567C 24.3223 25.5335 24.1831 25.4929 24.0439 25.4349C 23.9163 25.377 23.8119 25.3016 23.7307 25.2088L 23.7307 25.2262C 23.6264 25.1218 23.551 24.9942 23.5046 24.8434C 23.4582 24.6926 23.4234 24.5419 23.4002 24.3911L 23.3654 24.2345C 23.203 23.6082 23.0638 23.0456 22.9478 22.5469C 22.8435 22.0482 22.7565 21.5494 22.6869 21.0507C 22.6173 20.5519 22.5651 20.0358 22.5303 19.5023C 22.5071 18.9687 22.4955 18.354 22.4955 17.6581C 22.4955 17.0666 22.5187 16.4634 22.5651 15.8487C 22.6231 15.234 22.6811 14.6308 22.7391 14.0393C 22.7391 13.9813 22.7391 13.9175 22.7391 13.8479C 22.7507 13.7668 22.7623 13.6972 22.7739 13.6392C 22.3331 14.3235 21.9446 15.0774 21.6082 15.9009C 21.2834 16.7128 20.9877 17.5479 20.7209 18.4062C 20.4657 19.2645 20.2396 20.1286 20.0424 20.9985C 19.8568 21.8568 19.6886 22.6745 19.5378 23.4516C 19.5378 23.4632 19.561 23.5328 19.6074 23.6604C 19.6654 23.7763 19.7176 23.9155 19.764 24.0779C 19.822 24.2287 19.8742 24.3795 19.9206 24.5303C 19.967 24.6694 19.9902 24.7622 19.9902 24.8086C 19.9902 25.0754 19.9032 25.2378 19.7292 25.2958C 19.5552 25.3538 19.3755 25.3828 19.1899 25.3828C 19.0507 25.3828 18.8999 25.377 18.7375 25.3654C 18.5752 25.3538 18.4128 25.3248 18.2504 25.2784C 18.0996 25.232 17.9546 25.1682 17.8155 25.087C 17.6879 25.0174 17.5835 24.913 17.5023 24.7738C 17.4327 24.6578 17.3515 24.3853 17.2587 23.9561C 17.1659 23.5154 17.0673 23.005 16.963 22.4251C 16.8586 21.8336 16.76 21.2015 16.6672 20.5287C 16.5744 19.856 16.4874 19.2181 16.4062 18.615C 16.325 18.0118 16.2612 17.4841 16.2148 17.0318C 16.1685 16.5794 16.1453 16.2721 16.1453 16.1097L 16.1453 15.8487C 15.7741 16.649 15.4667 17.5073 15.2232 18.4236C 14.9796 19.3399 14.794 20.2388 14.6664 21.1203L 14.5968 21.4334C 14.5736 21.5262 14.5562 21.619 14.5447 21.7118C 14.5331 21.793 14.5273 21.8742 14.5273 21.9554C 14.5273 22.083 14.5389 22.2395 14.562 22.4251C 14.5968 22.6107 14.6374 22.8137 14.6838 23.034C 14.7418 23.3356 14.7882 23.6488 14.823 23.9735C 14.8694 24.2867 14.8926 24.5998 14.8926 24.913ZM 33.9607 21.8162C 33.9607 22.1641 33.8621 22.5237 33.6649 22.8949C 33.4794 23.266 33.2358 23.6082 32.9342 23.9213C 32.6327 24.2229 32.2847 24.4723 31.8904 24.6694C 31.5076 24.8666 31.1249 24.9652 30.7421 24.9652C 30.197 24.9652 29.7272 24.8608 29.3329 24.652C 28.9385 24.4317 28.5964 24.1417 28.3064 23.7821C 28.0164 23.411 27.7787 22.9934 27.5931 22.5295C 27.4191 22.0656 27.2799 21.59 27.1755 21.1029C 27.0711 20.6041 26.9958 20.1112 26.9494 19.624C 26.9146 19.1253 26.8972 18.673 26.8972 18.267C 26.8972 17.9191 26.9146 17.5073 26.9494 17.0318C 26.9958 16.5562 27.0653 16.0633 27.1581 15.5529C 27.2625 15.0426 27.4017 14.5381 27.5757 14.0393C 27.7497 13.5406 27.9642 13.094 28.2194 12.6997C 28.4862 12.3053 28.7993 11.9864 29.1589 11.7428C 29.53 11.4992 29.9534 11.3774 30.4289 11.3774C 30.8001 11.3774 31.1307 11.4528 31.4206 11.6036C 31.7222 11.7544 31.9716 11.9574 32.1687 12.2125C 32.3775 12.4561 32.5341 12.7403 32.6385 13.065C 32.7545 13.3898 32.8125 13.7262 32.8125 14.0741C 32.8125 14.5265 32.7081 15.0194 32.4993 15.5529C 32.2905 16.0865 32.0179 16.6026 31.6816 17.1014C 31.3568 17.6001 30.9857 18.0524 30.5681 18.4584C 30.1622 18.8527 29.7562 19.1543 29.3503 19.3631C 29.3735 19.5719 29.4199 19.8792 29.4895 20.2852C 29.559 20.6795 29.6518 21.0739 29.7678 21.4682C 29.8954 21.8626 30.0404 22.2047 30.2028 22.4947C 30.3767 22.7847 30.5797 22.9296 30.8117 22.9296C 30.9277 22.9296 31.0263 22.8949 31.1075 22.8253C 31.2002 22.7557 31.2814 22.6629 31.351 22.5469C 31.4206 22.4309 31.4786 22.3033 31.525 22.1641C 31.583 22.025 31.6352 21.8916 31.6816 21.764L 31.786 21.5204C 31.8092 21.4856 31.8208 21.4624 31.8208 21.4508C 31.8324 21.4392 31.844 21.4218 31.8556 21.3986C 31.9368 21.2479 32.0121 21.1087 32.0817 20.9811C 32.1629 20.8535 32.2731 20.7433 32.4123 20.6505L 32.3949 20.6505C 32.4413 20.6041 32.4877 20.5809 32.5341 20.5809C 32.5921 20.5693 32.6443 20.5635 32.6907 20.5635C 32.8183 20.5635 32.9574 20.6041 33.1082 20.6853C 33.259 20.7665 33.3982 20.8709 33.5258 20.9985C 33.6534 21.1145 33.7577 21.2479 33.8389 21.3986C 33.9201 21.5378 33.9607 21.677 33.9607 21.8162ZM 30.5159 14.1437C 30.5159 14.0277 30.5101 13.9059 30.4985 13.7784C 30.4869 13.6508 30.4579 13.5406 30.4115 13.4478C 30.2492 13.645 30.1042 13.8827 29.9766 14.1611C 29.8606 14.4279 29.762 14.712 29.6808 15.0136C 29.5996 15.3036 29.53 15.5993 29.4721 15.9009C 29.4257 16.2025 29.3909 16.4808 29.3677 16.736C 29.6692 16.3764 29.936 15.9705 30.168 15.5181C 30.3999 15.0542 30.5159 14.5961 30.5159 14.1437Z"/>
<path id="path17_stroke" d="M 30.5 10L 30.1199 7.52907L 29.8345 7.57297L 29.5667 7.68076L 30.5 10ZM -1.14337 2.22322C 1.83844 3.75553 7.05157 6.06118 12.772 7.90491C 18.4778 9.73754 25.0741 11.1898 30.5961 10.9982L 30.4039 6.00185C 25.5259 6.21022 19.7888 4.91247 14.303 3.14509C 8.83177 1.38882 3.9949 -0.755531 1.14337 -2.22322L -1.14337 2.22322ZM 30.5961 10.9982C 33.2032 10.8979 34.6322 10.9077 35.2864 10.963C 35.4302 10.9744 35.478 10.9872 35.455 10.9804C 35.4395 10.977 35.3603 10.9598 35.2462 10.9168C 35.1571 10.8833 34.8879 10.7768 34.5981 10.5315C 34.2892 10.2701 33.7842 9.6904 33.7447 8.78238C 33.7072 7.91986 34.1187 7.33545 34.3259 7.09535C 34.5399 6.84736 34.7485 6.71219 34.8218 6.66647C 34.9139 6.60903 34.9807 6.57848 34.9981 6.57067C 35.0435 6.54486 34.8546 6.62232 34.5299 6.70418C 34.1858 6.7921 33.7852 6.87981 33.3003 6.97667C 32.3208 7.17285 31.1843 7.36539 30.1199 7.52907L 30.8802 12.4709C 31.9824 12.3013 33.2292 12.0896 34.2809 11.8796C 35.2261 11.6905 36.3644 11.4391 37.052 11.1293C 37.1712 11.0756 37.6898 10.8504 38.1113 10.362C 38.3513 10.0839 38.779 9.46277 38.74 8.56499C 38.6989 7.62172 38.1747 7.00818 37.8278 6.71458C 37.2714 6.24378 36.6377 6.12043 36.5074 6.09238C 36.2947 6.04849 35.9766 6.0043 35.7074 5.98075C 34.7778 5.90437 33.0536 5.90043 30.4039 6.00185L 30.5961 10.9982ZM 29.5667 7.68076C 22.5632 10.5067 15.9717 14.3769 11.2534 17.4724C 8.87983 19.0306 6.91724 20.4297 5.57775 21.4183C 4.90141 21.9177 4.36415 22.3267 4.00706 22.6024C 3.82544 22.7427 3.68206 22.855 3.58894 22.9283C 3.54089 22.9662 3.5023 22.9968 3.47801 23.0161C 3.46513 23.0264 3.45434 23.035 3.44787 23.0401C 3.44427 23.043 3.44103 23.0456 3.43923 23.0471C 3.43815 23.0479 3.43707 23.0488 3.43653 23.0492C 3.43617 23.0495 3.43577 23.0498 3.43559 23.05C 3.43523 23.0503 3.43492 23.0505 5 25C 6.56508 26.9495 6.56486 26.9497 6.56468 26.9498C 6.56468 26.9498 6.56455 26.9499 6.56455 26.9499C 6.56473 26.9498 6.56473 26.9498 6.56509 26.9495C 6.56617 26.9486 6.56724 26.9478 6.56939 26.946C 6.5744 26.942 6.58079 26.9369 6.59072 26.929C 6.61204 26.9121 6.64156 26.8887 6.68353 26.8556C 6.77042 26.7871 6.89461 26.6899 7.06325 26.5597C 7.40669 26.2944 7.90067 25.9182 8.54725 25.441C 9.8536 24.4766 11.7035 23.1569 13.9966 21.6526C 18.6117 18.6231 24.7702 14.9933 31.4334 12.3192L 29.5667 7.68076Z"/>
</defs>
</svg>
