<svg width="507" height="507" viewBox="0 0 507 507" version="1.1" xmlns="http://www.w3.org/2000/svg" xmlns:xlink="http://www.w3.org/1999/xlink">
<title>Frame 2</title>
<desc>Created using Figma</desc>
<g id="Canvas" transform="translate(2487 -7342)">
<clipPath id="clip-0" clip-rule="evenodd">
<path d="M -2487 7342L -1980 7342L -1980 7849L -2487 7849L -2487 7342Z" fill="#FFFFFF"/>
</clipPath>
<g id="Frame 2" clip-path="url(#clip-0)">
<path d="M -2487 7342L -1980 7342L -1980 7849L -2487 7849L -2487 7342Z" fill="#FFFFFF"/>
<g id="Vector 20">
<use xlink:href="#path0_fill" transform="translate(-2453 7807)" fill="#414141" fill-opacity="0.31"/>
</g>
<g id="Rectangle 5">
<use xlink:href="#path1_fill" transform="translate(-2451.5 7520)" fill="#5E5E5E"/>
</g>
<g id="Rectangle 2">
<use xlink:href="#path2_fill" transform="matrix(0.18016 -0.983637 0.983637 0.18016 -2479 7811.69)" fill="#C4C4C4"/>
</g>
<g id="Group">
<g id="Ellipse 4">
<use xlink:href="#path3_fill" transform="matrix(0.972572 0.2326 -0.2326 0.972572 -2329.18 7749.67)" fill="#7A7A7A"/>
<mask id="mask0_outline_ins">
<use xlink:href="#path3_fill" fill="white" transform="matrix(0.972572 0.2326 -0.2326 0.972572 -2329.18 7749.67)"/>
</mask>
<g mask="url(#mask0_outline_ins)">
<use xlink:href="#path4_stroke_2x" transform="matrix(0.972572 0.2326 -0.2326 0.972572 -2329.18 7749.67)"/>
</g>
</g>
<g id="Vector 24">
<use xlink:href="#path5_stroke" transform="matrix(0.972572 0.2326 -0.2326 0.972572 -2343.86 7761.59)"/>
</g>
</g>
<g id="Vector 25">
<use xlink:href="#path6_fill" transform="translate(-2426 7514)" fill="#292929"/>
</g>
</g>
</g>
<defs>
<path id="path0_fill" d="M 248.5 1.08455C 247.7 -0.115451 109.833 -0.0821178 41 0.0845489L 0 9.08447C 74.8333 15.9178 224.8 28.9845 226 26.5845C 227.5 23.5845 249.5 2.58455 248.5 1.08455Z"/>
<path id="path1_fill" d="M 25.5 2.5L 94.5 0L 41 289L 0 297L 25.5 2.5Z"/>
<path id="path2_fill" d="M 0 0L 294 0L 294 28L 0 28L 0 0Z"/>
<path id="path3_fill" d="M 15 7.5C 15 11.6421 11.6421 15 7.5 15C 3.35786 15 0 11.6421 0 7.5C 0 3.35786 3.35786 0 7.5 0C 11.6421 0 15 3.35786 15 7.5Z"/>
<path id="path4_stroke_2x" d="M 14 7.5C 14 11.0899 11.0899 14 7.5 14L 7.5 16C 12.1944 16 16 12.1944 16 7.5L 14 7.5ZM 7.5 14C 3.91015 14 1 11.0899 1 7.5L -1 7.5C -1 12.1944 2.80558 16 7.5 16L 7.5 14ZM 1 7.5C 1 3.91015 3.91015 1 7.5 1L 7.5 -1C 2.80558 -1 -1 2.80558 -1 7.5L 1 7.5ZM 7.5 1C 11.0899 1 14 3.91015 14 7.5L 16 7.5C 16 2.80558 12.1944 -1 7.5 -1L 7.5 1Z"/>
<path id="path5_stroke" d="M 20.5 33L 20.0528 32.7764L 20.0304 32.8212L 20.0173 32.8695L 20.5 33ZM 39.5 45L 39.0975 44.7034L 38.547 45.4505L 39.4737 45.4993L 39.5 45ZM 2 46.5L 2.17366 46.0311L 1.62455 45.8278L 1.50971 46.4019L 2 46.5ZM 20.6038 33.4891C 26.0956 32.3242 33.5386 31.5508 38.1851 32.905C 40.5005 33.5798 41.9691 34.7328 42.3125 36.4808C 42.6666 38.2829 41.8799 40.9272 39.0975 44.7034L 39.9025 45.2966C 42.7201 41.4728 43.7334 38.5255 43.2937 36.288C 42.8434 33.9963 40.9245 32.6618 38.4649 31.945C 33.5614 30.5159 25.9044 31.3425 20.3962 32.5109L 20.6038 33.4891ZM 20.0173 32.8695C 19.1952 35.917 17.3281 40.1773 14.3193 43.2111C 11.3575 46.2091 7.34893 47.9479 2.17366 46.0311L 1.82634 46.9689C 7.45107 49.0521 11.8592 47.1242 15.0307 43.9139C 18.1552 40.7394 20.1382 36.2497 20.9827 33.1305L 20.0173 32.8695ZM 20.0114 0.106215C 20.4133 1.9545 20.8526 4.35945 21.2335 7.0696L 22.2237 6.9304C 21.8398 4.19997 21.3939 1.75841 20.9886 -0.106215L 20.0114 0.106215ZM 21.2335 7.0696C 21.8303 11.3142 22.278 16.2596 22.1999 20.9108C 22.1224 25.5702 21.5167 29.8486 20.0528 32.7764L 20.9472 33.2236C 22.5147 30.0886 23.1217 25.6239 23.1998 20.9274C 23.2773 16.2228 22.8237 11.1996 22.2237 6.9304L 21.2335 7.0696ZM 21.8987 6.52983C 20.1909 5.91238 17.8224 4.82263 15.311 3.79504C 12.8001 2.76791 10.1191 1.7969 7.84968 1.44338C 5.60644 1.0963 3.48594 1.31288 2.42187 3.00756C 1.90251 3.83471 1.68715 4.9459 1.77825 6.35549C 1.86951 7.74343 2.26961 9.51365 3.0285 11.6664L 3.9715 11.3336C 3.23039 9.23635 2.85921 7.60032 2.77616 6.291C 2.69295 5.00332 2.90025 4.12623 3.26877 3.53932C 3.98044 2.40587 5.49656 2.0912 7.69678 2.43162C 9.87083 2.7656 12.4401 3.70084 14.9324 4.72058C 17.4241 5.73987 19.8115 6.83762 21.5585 7.47017L 21.8987 6.52983ZM 21.2629 7.18186C 22.5791 10.5529 23.6501 12.8914 24.692 14.3252C 25.2158 15.0461 25.7575 15.5747 26.3542 15.882C 26.9404 16.1743 27.6271 16.2492 28.2634 16.1128C 29.5233 15.8292 30.8912 14.7613 32.5271 13.2765C 34.1886 11.7683 36.2196 9.73727 38.8355 7.37077L 38.1645 6.62923C 35.5304 9.01273 33.4989 11.0442 31.855 12.536C 30.1856 14.0512 29.0053 14.9208 28.0438 15.1372C 27.5694 15.2508 27.2271 15.2163 26.8121 14.993C 26.4077 14.7847 25.9762 14.3914 25.5009 13.7373C 24.5446 12.4211 23.5138 10.1971 22.1944 6.81814L 21.2629 7.18186ZM 1.50971 46.4019L -0.49029 56.4019L 0.49029 56.5981L 2.49029 46.5981L 1.50971 46.4019ZM 39.4737 45.4993L 48.9737 45.9993L 49.0263 45.0007L 39.5263 44.5007L 39.4737 45.4993Z"/>
<path id="path6_fill" d="M 69 6L 28 13.5L 0 8.5L 42.5 0L 69 6Z"/>
</defs>
</svg>
